<svg width="50" height="50" viewBox="0 0 50 50" fill="none" xmlns="http://www.w3.org/2000/svg">
<circle cx="25" cy="25" r="25" fill="#425893"/>
<path fill-rule="evenodd" clip-rule="evenodd" d="M23.4877 16.7877C24.4723 15.8031 25.8076 15.25 27.2 15.25H29.9C30.3142 15.25 30.65 15.5858 30.65 16V19.6C30.65 20.0142 30.3142 20.35 29.9 20.35H27.2C27.1602 20.35 27.1221 20.3658 27.0939 20.3939C27.0658 20.4221 27.05 20.4602 27.05 20.5V22.45H29.9C30.131 22.45 30.349 22.5564 30.4912 22.7384C30.6333 22.9205 30.6836 23.1578 30.6276 23.3819L29.7276 26.9819C29.6441 27.3158 29.3442 27.55 29 27.55H27.05V34C27.05 34.4142 26.7142 34.75 26.3 34.75H22.7C22.2858 34.75 21.95 34.4142 21.95 34V27.55H20C19.5858 27.55 19.25 27.2142 19.25 26.8V23.2C19.25 22.7858 19.5858 22.45 20 22.45H21.95V20.5C21.95 19.1076 22.5031 17.7723 23.4877 16.7877ZM27.2 16.75C26.2054 16.75 25.2516 17.1451 24.5483 17.8483C23.8451 18.5516 23.45 19.5054 23.45 20.5V23.2C23.45 23.6142 23.1142 23.95 22.7 23.95H20.75V26.05H22.7C23.1142 26.05 23.45 26.3858 23.45 26.8V33.25H25.55V26.8C25.55 26.3858 25.8858 26.05 26.3 26.05H28.4144L28.9394 23.95H26.3C25.8858 23.95 25.55 23.6142 25.55 23.2V20.5C25.55 20.0624 25.7238 19.6427 26.0333 19.3333C26.3427 19.0238 26.7624 18.85 27.2 18.85H29.15V16.75H27.2Z" fill="#FCFCFC"/>
</svg>
