<svg width="50" height="50" viewBox="0 0 50 50" fill="none" xmlns="http://www.w3.org/2000/svg">
<circle cx="25" cy="25" r="25" fill="#505FD0"/>
<path d="M28.9999 20C28.9999 19.4478 29.4477 19 29.9999 19C30.5522 19 30.9999 19.4478 30.9999 20C30.9999 20.5523 30.5522 21 29.9999 21C29.4477 21 28.9999 20.5523 28.9999 20Z" fill="#FCFCFC"/>
<path fill-rule="evenodd" clip-rule="evenodd" d="M24.9999 20.25C22.3766 20.25 20.2499 22.3767 20.2499 25C20.2499 27.6234 22.3766 29.75 24.9999 29.75C27.6233 29.75 29.7499 27.6234 29.7499 25C29.7499 22.3767 27.6233 20.25 24.9999 20.25ZM21.7499 25C21.7499 23.2051 23.205 21.75 24.9999 21.75C26.7949 21.75 28.2499 23.2051 28.2499 25C28.2499 26.795 26.7949 28.25 24.9999 28.25C23.205 28.25 21.7499 26.795 21.7499 25Z" fill="#FCFCFC"/>
<path fill-rule="evenodd" clip-rule="evenodd" d="M30.2582 15.8331C26.7916 15.4456 23.2083 15.4456 19.7417 15.8331C17.7297 16.0579 16.1053 17.6429 15.8688 19.6655C15.4542 23.2098 15.4542 26.7903 15.8688 30.3346C16.1053 32.3571 17.7297 33.9422 19.7417 34.167C23.2083 34.5545 26.7916 34.5545 30.2582 34.167C32.2702 33.9422 33.8946 32.3571 34.1311 30.3346C34.5457 26.7903 34.5457 23.2098 34.1311 19.6655C33.8946 17.6429 32.2703 16.0579 30.2582 15.8331ZM19.9083 17.3238C23.2642 16.9487 26.7357 16.9487 30.0916 17.3238C31.4217 17.4724 32.4872 18.5221 32.6413 19.8397C33.0423 23.2683 33.0423 26.7318 32.6413 30.1604C32.4872 31.478 31.4217 32.5277 30.0916 32.6763C26.7357 33.0514 23.2642 33.0514 19.9083 32.6763C18.5782 32.5277 17.5127 31.478 17.3586 30.1604C16.9576 26.7318 16.9576 23.2683 17.3586 19.8397C17.5127 18.5221 18.5782 17.4724 19.9083 17.3238Z" fill="#FCFCFC"/>
</svg>
