<svg width="50" height="50" viewBox="0 0 50 50" fill="none" xmlns="http://www.w3.org/2000/svg">
<circle cx="25" cy="25" r="25" fill="#CD5542"/>
<path fill-rule="evenodd" clip-rule="evenodd" d="M25 15.25C19.6152 15.25 15.25 19.6152 15.25 25C15.25 30.3848 19.6152 34.75 25 34.75C30.3848 34.75 34.75 30.3848 34.75 25C34.75 19.6152 30.3848 15.25 25 15.25ZM16.75 25C16.75 20.4437 20.4437 16.75 25 16.75C29.5563 16.75 33.25 20.4437 33.25 25C33.25 29.5563 29.5563 33.25 25 33.25C24.1427 33.25 23.316 33.1192 22.5386 32.8766C22.9612 32.213 23.2973 31.498 23.5387 30.7491L24.0553 28.7719C24.2687 29.0765 24.5548 29.3229 24.8877 29.4888C25.2205 29.6547 25.5895 29.7348 25.9612 29.7219C28.4965 29.7219 30.2778 27.4181 30.2778 24.5563C30.2778 21.8072 28.0334 19.7528 25.1537 19.7528C21.5675 19.7528 19.6615 22.1634 19.6615 24.7819C19.6615 26.005 20.3087 27.5191 21.3478 28.0059C21.5021 28.0772 21.6031 28.0059 21.6268 27.8931C21.6506 27.7804 21.7929 27.211 21.8583 26.9495C21.8685 26.9081 21.8686 26.8643 21.8582 26.8229C21.8479 26.7815 21.8276 26.7433 21.799 26.7116C21.4065 26.1585 21.1987 25.4957 21.2053 24.8175C21.2032 24.3307 21.3 23.8486 21.4896 23.4003C21.6793 22.952 21.958 22.5468 22.3088 22.2093C22.6596 21.8718 23.0753 21.609 23.5306 21.4368C23.9859 21.2646 24.4714 21.1866 24.9578 21.2075C25.4133 21.1809 25.8694 21.2495 26.2969 21.4089C26.7245 21.5684 27.1141 21.8152 27.4409 22.1336C27.7677 22.4521 28.0246 22.8352 28.1951 23.2584C28.3656 23.6817 28.446 24.1358 28.4312 24.5919C28.4312 26.8363 27.2912 28.3978 25.8187 28.3978C25.6285 28.4124 25.4375 28.381 25.262 28.3062C25.0865 28.2313 24.9317 28.1153 24.8105 27.9679C24.6893 27.8206 24.6055 27.6462 24.566 27.4595C24.5265 27.2729 24.5326 27.0794 24.5837 26.8956C24.6681 26.5454 24.7795 26.1847 24.888 25.8332C25.0849 25.1955 25.2725 24.5881 25.2725 24.1288C25.293 23.9796 25.2811 23.8277 25.2375 23.6835C25.1939 23.5394 25.1196 23.4064 25.0198 23.2936C24.92 23.1808 24.797 23.0909 24.6592 23.0301C24.5214 22.9693 24.3721 22.939 24.2215 22.9413C23.3903 22.9413 22.7193 23.8081 22.7193 24.96C22.7131 25.3671 22.7899 25.7711 22.945 26.1475L21.9653 30.3038C21.8453 31.0891 21.845 31.8882 21.9645 32.6736C21.3139 32.4161 20.7039 32.0782 20.1467 31.6722C19.1696 30.9584 18.3532 30.0348 17.7629 28.9593C17.5307 28.5362 17.3371 28.0962 17.183 27.6446C16.9022 26.8144 16.75 25.925 16.75 25Z" fill="#FCFCFC"/>
</svg>
