<svg width="50" height="50" viewBox="0 0 50 50" fill="none" xmlns="http://www.w3.org/2000/svg">
<circle cx="25" cy="25" r="25" fill="#4EA4EA"/>
<path fill-rule="evenodd" clip-rule="evenodd" d="M28.0215 16.3434C28.5299 16.2563 29.0992 16.2272 29.635 16.3179C30.5918 16.4798 31.4757 16.9245 32.1744 17.5913C32.6311 17.6016 33.0799 17.5116 33.477 17.3833C33.8131 17.2748 34.097 17.1437 34.296 17.0401C34.3949 16.9886 34.4713 16.9446 34.521 16.9148C34.5458 16.9 34.5638 16.8887 34.5745 16.8819L34.5841 16.8759C34.8809 16.6782 35.2761 16.7166 35.529 16.9681C35.7819 17.2197 35.8226 17.6146 35.6264 17.9125C35.4187 18.2278 35.1303 18.7899 34.8073 19.4197C34.7565 19.5187 34.7048 19.6194 34.6525 19.721C34.4672 20.081 34.2772 20.4448 34.1001 20.757C33.9889 20.9529 33.87 21.1519 33.7501 21.3239V21.5976C33.7577 22.6033 33.6424 23.6036 33.4083 24.5769C33.261 25.1892 33.0667 25.7908 32.8265 26.3762C32.2041 27.8928 31.2857 29.2703 30.1249 30.428C28.9642 31.5858 27.5844 32.5006 26.0662 33.1192C24.5492 33.7372 22.9245 34.047 21.2867 34.0305C18.9123 34.0326 16.588 33.3485 14.5933 32.0606C14.2995 31.8709 14.1758 31.5033 14.2951 31.1746C14.4144 30.8459 14.7451 30.6433 15.0922 30.6862C15.3926 30.7234 15.695 30.7415 15.9976 30.7405C17.0851 30.7375 18.1518 30.4972 19.1257 30.0446C18.8161 29.9037 18.5206 29.7299 18.2444 29.5251C17.4327 28.9232 16.8288 28.0833 16.5167 27.1221C16.4356 26.8724 16.4911 26.5984 16.6629 26.3998C16.666 26.3963 16.6691 26.3927 16.6722 26.3892C16.4887 26.2256 16.317 26.0474 16.1589 25.8558C15.4475 24.9936 15.0559 23.9121 15.0501 22.7944L15.0501 22.7905L15.0501 22.7405C15.0501 22.4747 15.1908 22.2287 15.42 22.0939C15.4781 22.0598 15.5397 22.0341 15.6031 22.0168C15.2647 21.3418 15.0888 20.5963 15.0901 19.8401C15.0897 18.9833 15.3135 18.1413 15.7392 17.3978C15.8621 17.1832 16.083 17.043 16.3295 17.023C16.576 17.003 16.8166 17.1059 16.9724 17.2979C17.935 18.4839 19.1363 19.4542 20.4982 20.1456C21.1984 20.5011 21.9329 20.7788 22.6887 20.9752C23.1125 21.0854 23.5429 21.1699 23.9777 21.2284C23.9585 20.5051 24.1013 19.7822 24.4011 19.1143C24.8407 18.1345 25.5932 17.3283 26.5404 16.8222C26.9416 16.6079 27.4741 16.4372 28.0215 16.3434ZM16.7434 23.8909C16.873 24.2558 17.0659 24.5981 17.3159 24.9012C17.8072 25.4967 18.4892 25.9043 19.2464 26.0549C19.5837 26.122 19.8321 26.4099 19.8492 26.7534C19.8662 27.0969 19.6474 27.4079 19.3184 27.508C19.0459 27.591 18.7668 27.6487 18.4844 27.6808C18.671 27.9213 18.8905 28.1368 19.1379 28.3202C19.6991 28.7364 20.376 28.9672 21.0745 28.9807C21.3914 28.9868 21.6703 29.1914 21.7711 29.492C21.8719 29.7925 21.773 30.1239 21.5239 30.3199C20.4747 31.1455 19.2615 31.7211 17.9759 32.015C19.0414 32.3562 20.1589 32.5319 21.2892 32.5305L21.2979 32.5305C22.7379 32.5455 24.1665 32.2734 25.5002 31.73C26.8339 31.1867 28.046 30.383 29.0656 29.366C30.0853 28.349 30.892 27.139 31.4388 25.8067C31.6498 25.2925 31.8205 24.764 31.9499 24.2261C32.1557 23.3703 32.257 22.4907 32.2501 21.6064L32.2501 21.6005V21.0705C32.2501 20.8887 32.3161 20.713 32.436 20.5762C32.5053 20.4972 32.6264 20.3146 32.7955 20.0167C32.9561 19.7336 33.1339 19.3937 33.3188 19.0345C33.33 19.0128 33.3412 18.991 33.3525 18.969C32.8729 19.0732 32.3293 19.1278 31.7595 19.0662C31.579 19.0467 31.4118 18.9624 31.2887 18.829C30.7858 18.2836 30.1162 17.9206 29.3848 17.7969C29.0602 17.742 28.6679 17.7545 28.2748 17.8219C27.8477 17.895 27.476 18.023 27.2473 18.1452C26.593 18.4948 26.0733 19.0516 25.7696 19.7284C25.4659 20.4052 25.3954 21.1636 25.5692 21.8848C25.6246 22.1147 25.5683 22.3573 25.4174 22.5393C25.2664 22.7214 25.0384 22.8215 24.8022 22.8096C23.9588 22.7669 23.1243 22.6383 22.3114 22.427C21.4515 22.2035 20.6158 21.8876 19.8192 21.4831C18.6464 20.8877 17.5784 20.1106 16.6535 19.1829C16.6113 19.3986 16.5899 19.6186 16.5901 19.84L16.5901 19.8419C16.589 20.3927 16.7242 20.9351 16.9835 21.4209C17.2428 21.9068 17.6182 22.321 18.0763 22.6266C18.3544 22.8121 18.4761 23.1592 18.3748 23.4777C18.2736 23.7963 17.9738 24.0093 17.6397 24.0002C17.3371 23.992 17.037 23.9552 16.7434 23.8909Z" fill="#FCFCFC"/>
</svg>
